<svg xmlns="http://www.w3.org/2000/svg" width="1400" height="280" viewBox="0 0 1400 280">
<defs><linearGradient id="sky" x1="0" y1="0" x2="0" y2="1"><stop offset="0" stop-color="#bfe6ff"/><stop offset=".72" stop-color="#ffffff"/></linearGradient><linearGradient id="water" x1="0" y1="0" x2="0" y2="1"><stop offset="0" stop-color="#7bc1ea"/><stop offset="1" stop-color="#e6f7ff"/></linearGradient></defs>
<rect width="1400" height="280" fill="url(#sky)"/>
<circle cx="160" cy="44" r="22" fill="#fff" opacity=".92"/><circle cx="190" cy="44" r="16" fill="#fff" opacity=".92"/><circle cx="1110" cy="54" r="28" fill="#fff" opacity=".9"/><circle cx="1146" cy="58" r="18" fill="#fff" opacity=".9"/>
<path d="M0 145 C180 106 290 150 460 120 C620 92 740 146 875 122 C1040 94 1185 132 1400 100 V280 H0Z" fill="#cbe9b6"/>
<path d="M0 168 C225 132 370 172 545 148 C720 122 840 170 1010 145 C1185 115 1285 143 1400 130 V280 H0Z" fill="url(#water)"/>
<rect x="70" y="108" width="60" height="42" rx="5" fill="#fff8e5"/><rect x="145" y="96" width="78" height="54" rx="5" fill="#fff"/>
<rect x="1110" y="96" width="78" height="56" rx="5" fill="#fff8e5"/><rect x="1202" y="82" width="88" height="70" rx="6" fill="#fff"/>
<path d="M1070 160 C1088 122 1110 122 1128 160 C1106 145 1092 145 1070 160Z" fill="#fff" opacity=".95"/>
</svg>