<svg xmlns="http://www.w3.org/2000/svg" width="900" height="360" viewBox="0 0 900 360">
<circle cx="450" cy="76" r="72" fill="#f8b21b"/>
<path d="M170 158 C285 110 388 130 500 100 C610 72 700 100 790 138 C635 138 575 190 445 180 C330 172 255 142 170 158Z" fill="#2f8c3a"/>
<path d="M168 196 C292 158 410 195 535 168 C625 148 715 168 802 190 C640 210 570 232 442 218 C330 206 252 180 168 196Z" fill="#1684c7"/>
<path d="M294 156 h28 v-42 h22 v42 h20 v-82 h28 v82 h22 v-62 h26 v62 h24 v-96 h30 v96 h28 v-58 h26 v58 h25 v-36 h25 v36" fill="#071d45"/>
<path d="M610 156 v-56 l50-36 50 36 v56z" fill="#071d45"/>
<path d="M646 156 v-38 h28 v38" fill="#fff"/>
<path d="M330 86 h105" stroke="#071d45" stroke-width="10"/>
<path d="M342 86 l-42 58" stroke="#071d45" stroke-width="8"/>
<path d="M424 86 l42 58" stroke="#071d45" stroke-width="8"/>
<path d="M375 86 v-58 h72" stroke="#071d45" stroke-width="8" fill="none"/>
<text x="450" y="270" text-anchor="middle" font-family="Arial Black,Arial" font-size="138" fill="#071d45">POLK</text>
<line x1="185" y1="312" x2="300" y2="312" stroke="#2f8c3a" stroke-width="6"/>
<line x1="600" y1="312" x2="715" y2="312" stroke="#2f8c3a" stroke-width="6"/>
<text x="450" y="324" text-anchor="middle" font-family="Arial Black,Arial" font-size="36" fill="#2f8c3a">DEVELOPMENT TRACKER</text>
<text x="450" y="352" text-anchor="middle" font-family="Arial Black,Arial" font-size="20" fill="#071d45">BUILDING A BETTER POLK COUNTY</text>
</svg>