<svg xmlns="http://www.w3.org/2000/svg" width="760" height="300" viewBox="0 0 760 300">
<circle cx="380" cy="70" r="58" fill="#f7b21a"/>
<path d="M150 140 C250 103 340 122 430 98 C520 75 595 98 670 132 C540 130 485 170 376 164 C280 158 225 132 150 140Z" fill="#2f8c3a"/>
<path d="M150 168 C260 138 360 168 465 148 C550 132 615 148 675 165 C540 183 485 204 375 193 C285 185 225 160 150 168Z" fill="#1684c7"/>
<path d="M250 140 h24 v-34 h18 v34 h18 v-68 h24 v68 h18 v-50 h22 v50 h22 v-78 h26 v78 h24 v-45 h22 v45 h22 v-28 h22 v28" fill="#061b42"/>
<path d="M514 140 v-48 l42-30 42 30 v48z" fill="#061b42"/>
<path d="M544 140 v-32 h24 v32" fill="#fff"/>
<path d="M280 78 h90" stroke="#061b42" stroke-width="8"/>
<path d="M290 78 l-35 48" stroke="#061b42" stroke-width="7"/>
<path d="M360 78 l35 48" stroke="#061b42" stroke-width="7"/>
<path d="M318 78 v-48 h62" stroke="#061b42" stroke-width="7" fill="none"/>
<text x="380" y="225" text-anchor="middle" font-family="Arial Black, Arial" font-size="105" fill="#061b42">POLK</text>
<text x="380" y="265" text-anchor="middle" font-family="Arial Black, Arial" font-size="30" fill="#2f8c3a">POSITIVE GROWTH NEWS</text>
<text x="380" y="292" text-anchor="middle" font-family="Arial Black, Arial" font-size="18" fill="#061b42">RESTAURANTS • HOUSING • ROADS • DEVELOPMENT</text>
</svg>