<svg xmlns="http://www.w3.org/2000/svg" width="760" height="300" viewBox="0 0 760 300">
<circle cx="380" cy="62" r="55" fill="#f8b21b"/>
<path d="M175 132 C275 94 360 114 450 88 C530 66 600 88 675 122 C540 121 495 164 383 156 C290 149 245 122 175 132Z" fill="#2f8c3a"/>
<path d="M172 162 C280 132 370 158 470 140 C550 125 620 138 690 154 C545 175 500 192 383 184 C285 174 235 150 172 162Z" fill="#1684c7"/>
<path d="M262 130 h22 v-32 h18 v32 h18 v-62 h22 v62 h18 v-45 h22 v45 h22 v-76 h26 v76 h23 v-42 h23 v42 h22 v-28 h22 v28" fill="#071d45"/>
<path d="M520 130 v-44 l38-28 38 28 v44z" fill="#071d45"/>
<path d="M548 130 v-28 h22 v28" fill="#fff"/>
<path d="M295 74 h82" stroke="#071d45" stroke-width="7"/>
<path d="M305 74 l-34 45" stroke="#071d45" stroke-width="6"/>
<path d="M368 74 l34 45" stroke="#071d45" stroke-width="6"/>
<path d="M330 74 v-44 h54" stroke="#071d45" stroke-width="6" fill="none"/>
<text x="380" y="220" text-anchor="middle" font-family="Arial Black,Arial" font-size="105" fill="#071d45">POLK</text>
<line x1="195" y1="252" x2="285" y2="252" stroke="#2f8c3a" stroke-width="5"/>
<line x1="475" y1="252" x2="565" y2="252" stroke="#2f8c3a" stroke-width="5"/>
<text x="380" y="263" text-anchor="middle" font-family="Arial Black,Arial" font-size="27" fill="#2f8c3a">DEVELOPMENT TRACKER</text>
<text x="380" y="288" text-anchor="middle" font-family="Arial Black,Arial" font-size="16" fill="#071d45">BUILDING A BETTER POLK COUNTY</text>
</svg>